<svg xmlns="http://www.w3.org/2000/svg" viewBox="0 0 500 500"><g id="freepik--background-complete--inject-85"><rect x="279.81" y="75.77" width="147.21" height="162.9" style="fill:#e6e6e6"></rect><rect x="286.29" y="82.22" width="134.64" height="150.33" style="fill:#f5f5f5"></rect><polygon points="324.34 82.22 286.29 224.73 286.29 147.58 303.7 82.22 324.34 82.22" style="fill:#fff"></polygon><polygon points="341.35 82.22 301.21 232.55 293.64 232.55 333.78 82.22 341.35 82.22" style="fill:#fff"></polygon><polygon points="420.93 123.22 420.93 200.38 412.4 232.55 391.76 232.55 420.93 123.22" style="fill:#fff"></polygon><rect x="350.8" y="75.77" width="5.23" height="162.9" style="fill:#e6e6e6"></rect><rect x="282.36" y="108.82" width="141.83" height="5.23" style="fill:#e6e6e6"></rect><path d="M443.92,330.2H263.17a5.87,5.87,0,0,1-5.86-5.86V61.06a5.87,5.87,0,0,1,5.86-5.86H443.92a5.87,5.87,0,0,1,5.86,5.86V324.34A5.87,5.87,0,0,1,443.92,330.2ZM263.17,55.45a5.62,5.62,0,0,0-5.61,5.61V324.34a5.62,5.62,0,0,0,5.61,5.61H443.92a5.61,5.61,0,0,0,5.61-5.61V61.06a5.61,5.61,0,0,0-5.61-5.61Z" style="fill:#e0e0e0"></path><path d="M235.49,330.2H54.75a5.87,5.87,0,0,1-5.87-5.86V61.06a5.87,5.87,0,0,1,5.87-5.86H235.49a5.86,5.86,0,0,1,5.86,5.86V324.34A5.86,5.86,0,0,1,235.49,330.2ZM54.75,55.45a5.62,5.62,0,0,0-5.62,5.61V324.34A5.62,5.62,0,0,0,54.75,330H235.49a5.61,5.61,0,0,0,5.61-5.61V61.06a5.61,5.61,0,0,0-5.61-5.61Z" style="fill:#e0e0e0"></path><rect y="391.27" width="500" height="0.25" style="fill:#e0e0e0"></rect><rect x="51.67" y="405.53" width="16.06" height="0.25" style="fill:#e0e0e0"></rect><rect x="170.35" y="402.82" width="53.53" height="0.25" style="fill:#e0e0e0"></rect><rect x="68.73" y="414.82" width="36.25" height="0.25" style="fill:#e0e0e0"></rect><rect x="378.35" y="402.69" width="43.19" height="0.25" style="fill:#e0e0e0"></rect><rect x="430.45" y="402.69" width="6.33" height="0.25" style="fill:#e0e0e0"></rect><rect x="316.21" y="408.92" width="53.89" height="0.25" style="fill:#e0e0e0"></rect><g id="freepik--freepik--Shelf--inject-343--inject-85"><rect x="131.4" y="116.75" width="6.82" height="274.77" style="fill:#e0e0e0"></rect><polygon points="170.45 391.52 163.61 391.52 136.89 116.75 143.73 116.75 170.45 391.52" style="fill:#e6e6e6"></polygon><rect x="93.69" y="306.76" width="19.69" height="19.69" style="fill:#e0e0e0"></rect><polygon points="125.97 256.97 132.89 233.99 136.52 234.91 129.16 258.16 125.97 256.97" style="fill:#e0e0e0"></polygon><polygon points="110.66 244.02 100.73 246.41 97.84 256.18 104.86 263.58 114.78 261.2 117.68 251.43 110.66 244.02" style="fill:#e0e0e0"></polygon><path d="M122.29,257.24h0a2.4,2.4,0,0,1-2.39-2.39v-4.48a2.38,2.38,0,0,1,2.39-2.37h0a2.37,2.37,0,0,1,2.37,2.37v4.48A2.39,2.39,0,0,1,122.29,257.24Z" style="fill:#e0e0e0"></path><rect x="91.67" y="253.8" width="41.22" height="18.67" style="fill:#e6e6e6"></rect><polygon points="122.38 95.82 116.57 113.07 127.31 113.07 122.38 95.82" style="fill:#e0e0e0"></polygon><polygon points="142.63 113.07 122.38 113.07 116.57 84.9 136.81 84.9 142.63 113.07" style="fill:#e6e6e6"></polygon><polygon points="106.64 199.65 100.83 216.91 111.57 216.91 106.64 199.65" style="fill:#e0e0e0"></polygon><polygon points="126.9 216.91 106.64 216.91 100.83 188.73 121.08 188.73 126.9 216.91" style="fill:#e6e6e6"></polygon><rect x="73.35" y="161.55" width="93.08" height="5.98" style="fill:#e0e0e0"></rect><rect x="73.35" y="216.51" width="93.08" height="5.98" style="fill:#e0e0e0"></rect><rect x="73.35" y="271.48" width="93.08" height="5.98" style="fill:#e0e0e0"></rect><rect x="103" y="271.48" width="63.44" height="5.98" style="fill:#f0f0f0;isolation:isolate"></rect><rect x="73.35" y="326.44" width="93.08" height="5.98" style="fill:#e0e0e0"></rect><rect x="103" y="326.44" width="63.44" height="5.98" style="fill:#f0f0f0;isolation:isolate"></rect><rect x="73.35" y="116.75" width="6.82" height="274.77" style="fill:#e0e0e0"></rect><polygon points="112.41 391.52 105.57 391.52 78.85 116.75 85.69 116.75 112.41 391.52" style="fill:#e6e6e6"></polygon><rect x="73.35" y="112.13" width="93.08" height="5.98" style="fill:#e0e0e0"></rect><rect x="103" y="112.13" width="63.44" height="5.98" style="fill:#f0f0f0;isolation:isolate"></rect><path d="M93,102.63a9.92,9.92,0,0,1,.27-8.14c2.15-4,2.78-5,1.34-5.82s-2,3.23-2,3.23a9,9,0,0,1-.2-5.72c.94-2.92,1.54-7.69.24-8.2s-.24,6-1.34,8.15a19.33,19.33,0,0,1-1.11-4.81c-.14-2.35.1-6.09-.93-7s-1.68-.3-.68,4.88a54.24,54.24,0,0,1,1,9.34s-2.23-6.79-3.73-7-1.49,2-.21,3.91,3.75,5.34,4.17,7.09c0,0-2.46-5.12-4.65-3.54s1.91,4.65,3.74,5.77S92,102.85,92,102.85Z" style="fill:#e0e0e0"></path><path d="M91.5,104.25a9.9,9.9,0,0,0-.36-8.13c-2.2-4-2.83-5-1.47-5.8s2,3.21,2,3.21a9.13,9.13,0,0,0,.13-5.73c-1-2.91-1.64-7.67-.34-8.19s.32,5.93,1.47,8.12A19.31,19.31,0,0,0,94,82.91c.12-2.35-.16-6.09.86-7.06s1.68-.34.73,4.87a53.35,53.35,0,0,0-.89,9.35s2.15-6.83,3.64-7,1.52,2,.25,3.91-3.68,5.34-4,7.16c0,0,2.38-5.16,4.59-3.62s-1.85,4.68-3.67,5.82-3,8.17-3,8.17Z" style="fill:#ebebeb"></path><polygon points="99.94 101.31 84.83 101.31 86.05 112.13 98.72 112.13 99.94 101.31" style="fill:#e0e0e0"></polygon><path d="M126.64,156.75v4.14h.67v.66H96.37a2.74,2.74,0,1,1,0-5.47h30.94v.67Z" style="fill:#e0e0e0"></path><path d="M126.64,156.75v4.14h.67v.66H111.68a2.74,2.74,0,0,1,0-5.47h15.63v.67Z" style="fill:#fff;isolation:isolate;opacity:0.30000000000000004"></path><path d="M126.64,156.75v4.14h-15a2.09,2.09,0,0,1-2.12-2v0a2.06,2.06,0,0,1,2-2.07h15Z" style="fill:#fff;isolation:isolate"></path><path d="M130,151.27v4.14h.67v.67H99.69a2.74,2.74,0,0,1,0-5.47h30.94v.66Z" style="fill:#e0e0e0"></path><path d="M130,151.27v4.14h.67v.67H115a2.74,2.74,0,1,1,0-5.47h15.62v.66Z" style="fill:#e6e6e6;isolation:isolate"></path><path d="M130,151.27v4.14H115a2.07,2.07,0,0,1,0-4.14h15Z" style="fill:#fff;isolation:isolate"></path><path d="M125.78,145.8v4.14h.67v.67H95.51a2.74,2.74,0,0,1,0-5.48h30.94v.67Z" style="fill:#e0e0e0"></path><path d="M125.78,145.8v4.14h.67v.67H110.9a2.74,2.74,0,1,1,0-5.48h15.62v.67Z" style="fill:#e6e6e6;isolation:isolate"></path><path d="M125.78,145.8v4.14H110.9a2.09,2.09,0,0,1-2.14-2v0a2,2,0,0,1,2-2.08h15Z" style="fill:#fff;isolation:isolate"></path><path d="M131.36,298.17h0a6.79,6.79,0,0,1,6.79,6.79v10a6.79,6.79,0,0,1-6.79,6.78h0a6.79,6.79,0,0,1-6.78-6.78V305A6.79,6.79,0,0,1,131.36,298.17Z" style="fill:#e6e6e6"></path><rect x="129.71" y="315.65" width="3.28" height="10.8" style="fill:#e6e6e6"></rect><rect x="126.22" y="325.42" width="10.27" height="1.01" style="fill:#e6e6e6"></rect></g><path d="M403.57,366.06c0-.51-1.72-50.69-9.88-58.62-7.94-7.72-17.05-.29-17.43,0l-.82-1c.1-.09,10.38-8.48,19.14,0,8.53,8.29,10.2,57.41,10.27,59.5Z" style="fill:#e0e0e0"></path><path d="M404.27,375.92c-.06-.6-5.58-60.24,16.2-85.24l1,.84c-21.42,24.58-16,83.68-15.9,84.28Z" style="fill:#e0e0e0"></path><path d="M403.46,369.61l-1.27-.08c0-.68,4.26-67.81-11.71-82.5l.86-.95C407.76,301.19,403.65,366.83,403.46,369.61Z" style="fill:#e0e0e0"></path><path d="M405.54,369.58h-1.27c0-1.85.52-45.35,12.88-52.43a8.74,8.74,0,0,1,8-.78c7.47,3.09,11.18,16.39,11.33,16.95l-1.23.34c0-.13-3.69-13.26-10.59-16.11a7.52,7.52,0,0,0-6.87.71C406.06,325,405.55,369.13,405.54,369.58Z" style="fill:#e0e0e0"></path><path d="M400.73,369.61l-1.27-.08c0-.34,1.86-34.37-7.32-46.36-2.23-2.9-4.64-4.29-7.19-4.11-6,.42-11.07,9.23-11.12,9.32l-1.11-.63c.22-.39,5.43-9.49,12.13-10,3-.21,5.8,1.34,8.3,4.61C402.62,334.76,400.81,368.19,400.73,369.61Z" style="fill:#e0e0e0"></path><path d="M402.75,374.24c-.25-3.31-6-81,4.12-94.7l1,.76c-9.84,13.32-3.93,93-3.87,93.84Z" style="fill:#e0e0e0"></path><path d="M427.9,324.24s-6.08,2.24-4.27,7.52,21,14,21,14,8-7.37.65-19.36S428.06,320.45,427.9,324.24Z" style="fill:#ebebeb"></path><path d="M401.5,314.17s6.46-.27,6.83,5.31-14,21-14,21-10.26-3.71-8.06-17.62S399.89,310.75,401.5,314.17Z" style="fill:#ebebeb"></path><path d="M396,287.5s4.31-.47,4-3.09S383.22,275,373.54,286c0,0,6.2,10.65,15.16,10.79S396,287.5,396,287.5Z" style="fill:#ebebeb"></path><path d="M404.05,281.12s-3.9,1.89-5-.53,9.26-16.83,23.26-12.67c0,0,.37,12.32-7.17,17.18S404.05,281.12,404.05,281.12Z" style="fill:#ebebeb"></path><path d="M383.64,322.11s3-2.4-.23-3.57-19-.84-19.14,14.77c0,0,18.36,3,20.63-2.9S383.64,322.11,383.64,322.11Z" style="fill:#ebebeb"></path><path d="M421.06,287.1s-3-2.4.24-3.57,19-.84,19.13,14.77c0,0-18.35,3.05-20.62-2.9S421.06,287.1,421.06,287.1Z" style="fill:#ebebeb"></path><path d="M411.36,299.68s-.26-2.92,2.1-1.78,10.57,10,2.06,18.42c0,0-11.47-8.49-9.4-12.91S411.36,299.68,411.36,299.68Z" style="fill:#ebebeb"></path><path d="M381,303.84s1.78-2.33-.82-2.62-14.28,2.83-11.57,14.48c0,0,14.23-1.07,14.84-5.91S381,303.84,381,303.84Z" style="fill:#ebebeb"></path><polygon points="417.5 392.09 388.81 392.09 381.18 356.89 424.41 356.89 417.5 392.09" style="fill:#f0f0f0"></polygon><rect x="378.58" y="356.38" width="48.32" height="10.12" style="fill:#e6e6e6"></rect></g><g id="freepik--Shadow--inject-85"><path d="M458.88,459c0,3.39-93.52,6.14-208.88,6.14S41.12,462.34,41.12,459s93.52-6.13,208.88-6.13S458.88,455.57,458.88,459Z" style="fill:#f5f5f5"></path></g><g id="freepik--Characters--inject-85"><path d="M324.54,236.45l-8.93,103L302,430.71l-10.53-1.59s-3.56-38.16-1-68.19c.59-6.92,3.41-14.67,3.42-20.2,0-4.84-1.42-8.09-2.49-19.23-1.3-13.47-2.09-31.39.74-44.83,0,0-2.14-21.34,4.31-40.64Z" style="fill:#d89380"></path><path d="M349.9,335.23,349,431.47l-.34,10-7.37-.41-2.86-17.54s-8.45-33.35-10.25-63.42c-.4-6.93,1.24-15,.48-20.48-.67-4.8-2.57-7.8-5.25-18.63-3.24-13.15-6.58-30.75-5.76-44.48,0,0-14.07-14.69-10.47-34.73l31.6-7.37Z" style="fill:#d89380"></path><path d="M363.22,450.83a17.62,17.62,0,0,0-4.9-1.95h0S353,445,350.24,433.14l-6.94-1.28a6.86,6.86,0,0,0-6.17,1.92,2.7,2.7,0,0,0-.43.7,23.8,23.8,0,0,0-.64,3.82,83.87,83.87,0,0,0,.17,13.07h1.29l.31-8.21c0-2.79,3,.45,3.89,3.43s2.65,6.23,10.72,6.23C361.71,452.85,365.62,452.54,363.22,450.83Z" style="fill:#263238"></path><path d="M348.92,428.89A112.08,112.08,0,0,0,353,440.31a22.93,22.93,0,0,0,5.37,8.57s-6,.89-8.7-2.15-6.46-13.51-12.57-12.89a10.7,10.7,0,0,1,1.73-2.18C339.85,430.56,348.92,428.89,348.92,428.89Z" style="fill:#d89380"></path><path d="M310.54,453.58a17.23,17.23,0,0,0-4.28-3.07h0s-4.24-5.05-4.07-17.22l-6.42-2.91a6.84,6.84,0,0,0-6.45.38,2.71,2.71,0,0,0-.59.58,23.6,23.6,0,0,0-1.53,3.55,84.06,84.06,0,0,0-3,12.73l1.26.31,2.28-7.9c.67-2.7,2.82,1.17,2.95,4.27s1.07,6.68,8.9,8.62C308.6,455.18,312.47,455.82,310.54,453.58Z" style="fill:#263238"></path><path d="M301.94,428.85a110.94,110.94,0,0,0,1.25,12.07,22.84,22.84,0,0,0,3.15,9.61s-6.06-.59-7.93-4.18-3-14.67-9.1-15.53a10.73,10.73,0,0,1,2.2-1.7C292.73,428.28,301.94,428.85,301.94,428.85Z" style="fill:#d89380"></path><path d="M296.84,115.15a4.08,4.08,0,0,0-2.42-4.86,5.92,5.92,0,0,0-5.64.95,11,11,0,0,0-3.4,4.83,20,20,0,0,0,2.74,19.3c2,2.59,4.87,4.73,8.14,5.1s6.88-1.42,7.88-4.55Z" style="fill:#263238"></path><path d="M318.38,109.49s8.61,16.94,8.86,22.12c3.42,3.13,6.15-2.87,6.31-11,.14-6.68-3.09-14-8.76-16.82C316.81,99.82,318.38,109.49,318.38,109.49Z" style="fill:#263238"></path><path d="M315.42,157.21a5.91,5.91,0,0,1-1.75-5.45,22.85,22.85,0,0,1,1.61-5.22L313.07,144,301.5,132.28c.29,7.8,1.23,20.32-4.87,24.55,0,0-7.56,3.13-10.86,3.81,2,1.62,14.6,18.78,26.28,17.84,10.62-.86,11.38-15.83,12.5-20.21C321.53,157.33,318.27,157.86,315.42,157.21Z" style="fill:#d89380"></path><path d="M313.69,152.11c-3.18-1.89-6.67-5.17-6.25-8.91a17.09,17.09,0,0,1,.9-4l6.46,8.56A21.75,21.75,0,0,0,313.69,152.11Z" style="opacity:0.2"></path><path d="M298.79,119.76c1.09,11.89,1.3,16.93,7.43,23.16,9.23,9.37,23.42,6.22,25.87-5.56,2.2-10.61.05-28.26-11.62-33.26C309,99.18,297.7,107.87,298.79,119.76Z" style="fill:#d89380"></path><path d="M314.74,124.51c0,1.12.57,2.09,1.35,2.17s1.43-.76,1.47-1.87-.58-2.08-1.36-2.17S314.77,123.4,314.74,124.51Z" style="fill:#263238"></path><path d="M326.85,123.91a1.92,1.92,0,0,0,1.23,2.18c.77.13,1.47-.64,1.56-1.72a1.91,1.91,0,0,0-1.23-2.17C327.64,122.07,326.94,122.84,326.85,123.91Z" style="fill:#263238"></path><path d="M311.72,120.58a.55.55,0,0,0,.42-.14,4.31,4.31,0,0,1,3.91-1.14.54.54,0,0,0,.68-.4.65.65,0,0,0-.45-.73,5.35,5.35,0,0,0-4.95,1.38.6.6,0,0,0,0,.83A.7.7,0,0,0,311.72,120.58Z" style="fill:#263238"></path><path d="M330.2,118.81a.54.54,0,0,0,.33-.26.56.56,0,0,0-.27-.77,6.12,6.12,0,0,0-5.42-.34.54.54,0,0,0-.21.77.62.62,0,0,0,.81.24,5,5,0,0,1,4.3.31A.58.58,0,0,0,330.2,118.81Z" style="fill:#263238"></path><path d="M295.2,129.45a9.59,9.59,0,0,0,5.77,4.49c3.15.79,4.77-4.27,3.7-7.42a6.33,6.33,0,0,0-7.12-4.1C294.53,123,293.59,126.66,295.2,129.45Z" style="fill:#d89380"></path><path d="M322.72,123a40.45,40.45,0,0,0,4,7.23.92.92,0,0,1-.43,1.4,5.89,5.89,0,0,1-3.19.05Z" style="fill:#a24e3f"></path><path d="M316,122.6l2.77-.42S317.08,124.09,316,122.6Z" style="fill:#263238"></path><path d="M328.13,122.18l2.79-.25S329.16,123.74,328.13,122.18Z" style="fill:#263238"></path><path d="M295.82,113.16c-1.69,2.27,1.27,9.14,1.27,9.14s5.75-1.48,5.75,7.1c2.09.43,4.74-7.49,4.69-15.56C307.27,109.28,298.81,109.16,295.82,113.16Z" style="fill:#263238"></path><path d="M329.62,107.78c-2.32-5.31-12.37-10.54-24.32-5.92-10.79,4.15-14.42,19.51-6.76,20.37s17-6.33,17-6.33Z" style="fill:#263238"></path><path d="M300.38,130.93h-.07a4.52,4.52,0,0,1-3.09-2.34,2.72,2.72,0,0,1-.16-2.2,2.17,2.17,0,0,1,2.75-1.15.24.24,0,0,1,.13.33.26.26,0,0,1-.33.13,1.67,1.67,0,0,0-2.09.89,2.24,2.24,0,0,0,.15,1.79,4.06,4.06,0,0,0,2.77,2.07.24.24,0,0,1,.18.3A.26.26,0,0,1,300.38,130.93Z" style="opacity:0.2"></path><path d="M320.91,135.49a6.22,6.22,0,0,1-5.41-3.29A.25.25,0,0,1,316,132a5.67,5.67,0,0,0,5.09,3,.23.23,0,0,1,.25.24.25.25,0,0,1-.24.26Z" style="fill:#263238"></path><circle cx="299.78" cy="133.92" r="1.63" style="fill:#9340FF"></circle><path d="M326.75,109.06c-2.73,3.45-6.55,5.63-10.39,7.64-4.38,2.28-9.11,4.87-14.22,3.87-.47-.1-.67.62-.2.72,5.06,1,9.71-1.31,14.08-3.57,4.13-2.14,8.32-4.42,11.26-8.13.3-.37-.23-.91-.53-.53Z" style="fill:#263238"></path><path d="M353.43,274.14c-3.72-30.31-18.22-53.56-21.13-58.06a2.54,2.54,0,0,1-.38-1.72l1.51-30.25-2.48-26c-1.66-.36-9.2-.82-10.94-.92,0,0-8.06,26.48-25.24.36l-9.92,2.77-3.09,23.31c.19,1.41,2.7,9.44,3.57,13l6.25,18.62a2.77,2.77,0,0,1,.09.91c-.44,5.64-3.28,14.53-4.31,18.31-4.85,17.8-3.46,19.43-6.24,39.38-5.22,37.53-8.18,62.23-16.42,83.91a2.54,2.54,0,0,0,2.35,3.46L363,362.28h0Z" style="fill:#9340FF"></path><path d="M353.43,274.14c-3.72-30.31-18.22-53.56-21.13-58.06a2.54,2.54,0,0,1-.38-1.72l1.51-30.25-2.48-26c-1.66-.36-9.2-.82-10.94-.92,0,0-8.06,26.48-25.24.36l-9.92,2.77-3.09,23.31c.19,1.41,2.7,9.44,3.57,13l6.25,18.62a2.77,2.77,0,0,1,.09.91c-.44,5.64-3.28,14.53-4.31,18.31-4.85,17.8-3.46,19.43-6.24,39.38-5.22,37.53-8.18,62.23-16.42,83.91a2.54,2.54,0,0,0,2.35,3.46L363,362.28h0Z" style="fill:#fff;opacity:0.30000000000000004"></path><g style="opacity:0.2"><path d="M323,207.79c-5.42-5.9-16-8.51-22.86-5.46C307.94,202.3,315.17,204.51,323,207.79Z"></path></g><path d="M284.35,160.38s-5,1.33-7.26,4.68-10.42,46.24-9.47,51.9,19.44,21.27,19.44,21.27l5.35-7.32-11.9-18.29,4.12-29.12Z" style="fill:#d89380"></path><path d="M344.05,178.48l-12.35,6L336,208.93l-22.44,26,3.85,9.71S347.89,218.34,350,213,345.57,182.21,344.05,178.48Z" style="fill:#d89380"></path><path d="M331,158.14s7.24.51,10.88,9.26c3.37,8.13,8.12,19.39,8.12,19.39l-18.05,5.09s-3-23.42-2.75-23.5S331,158.14,331,158.14Z" style="fill:#9340FF"></path><path d="M331,158.14s7.24.51,10.88,9.26c3.37,8.13,8.12,19.39,8.12,19.39l-18.05,5.09s-3-23.42-2.75-23.5S331,158.14,331,158.14Z" style="fill:#fff;opacity:0.30000000000000004"></path><path d="M283.86,198.35c-.54.17-18.22-7.08-18.22-7.08s7-23.14,9.91-26.88c2.78-3.59,13.74-5.28,13.74-5.28l-2,26.6Z" style="fill:#9340FF"></path><path d="M283.86,198.35c-.54.17-18.22-7.08-18.22-7.08s7-23.14,9.91-26.88c2.78-3.59,13.74-5.28,13.74-5.28l-2,26.6Z" style="fill:#fff;opacity:0.30000000000000004"></path><path d="M284.84,194.75s-3.08-9.73-3-16c0,0-3,10.85,2,19.62Z" style="opacity:0.2"></path><path d="M333.06,191.56a37.38,37.38,0,0,0,.37-7.45c-.26-3.42-2.3-10.91-2.3-10.91s5.12,8.74,4.86,17.53Z" style="opacity:0.2"></path><path d="M336,208.93s3,0,4.52,1.69a4.67,4.67,0,0,0-4.74-2.93Z" style="opacity:0.2"></path><polygon points="195.86 416.7 192.85 442.32 202.04 443.59 211.7 419.51 195.86 416.7" style="fill:#263238"></polygon><path d="M209.34,437.32c.14-1.57,0-2.87-1.8-3l-2.59-.14a4.6,4.6,0,0,0-2.46,1.1c-5.94,3.79-8.38-1.1-10.68-1.1-3,0-1.06,8.68-1.2,9.14l-3.23,10.07c-.28.84.29,2.66,1.27,2.9a2.42,2.42,0,0,0,.54.06h34.28c5.46,0,5.52-6.13,3.27-6.56-10.1-1.91-14.08-4.94-17.41-7.16A37.57,37.57,0,0,1,209.34,437.32Z" style="fill:#9340FF"></path><path d="M223.47,456.39H189.19a2.42,2.42,0,0,1-.54-.06c-.67-.17-1.14-1.05-1.29-1.87l0-.77h40.47A4.3,4.3,0,0,1,223.47,456.39Z" style="fill:#fff;opacity:0.4"></path><path d="M214.11,445.8a9.12,9.12,0,0,0-2.14,2.61.38.38,0,0,0,.14.51.37.37,0,0,0,.51-.13,8.27,8.27,0,0,1,2-2.46.39.39,0,0,0,0-.53.38.38,0,0,0-.53,0Z" style="fill:#263238"></path><path d="M211,444a10.26,10.26,0,0,0-2,2.43.38.38,0,0,0,.65.38,9.2,9.2,0,0,1,1.9-2.28.37.37,0,0,0,0-.53.39.39,0,0,0-.53,0Z" style="fill:#263238"></path><path d="M208.79,442.46a4.24,4.24,0,0,0-1.88,1.82.38.38,0,0,0,.14.51.38.38,0,0,0,.51-.13,4.19,4.19,0,0,1,.31-.5s.06-.09,0,0l0-.06.1-.11.21-.22.22-.2.06,0,0,0,0,0s.1-.08.13-.1a4.66,4.66,0,0,1,.53-.32.37.37,0,1,0-.38-.64Z" style="fill:#263238"></path><path d="M209,439.21a8,8,0,0,0-2.78.52.39.39,0,0,0-.27.46.39.39,0,0,0,.47.26A7.3,7.3,0,0,1,209,440a.38.38,0,0,0,.37-.38.37.37,0,0,0-.37-.37Z" style="fill:#263238"></path><g style="opacity:0.30000000000000004"><path d="M199.32,440.35a2.62,2.62,0,0,1-1.27,2.31,4.12,4.12,0,0,1-1.79.23l-5.45-.15,0-.05c-.28-2.37-1.05-8.15,1.2-8.15,1.78,0,3.64,3.32,7.35,2.35C199.3,438.15,199.36,439.75,199.32,440.35Z"></path></g><path d="M224.24,337.13C222.61,322.32,202,243.69,202,243.69l-26.24-.64-40.39-1.14S133,263,133,290.59c0,0,2,117.84,3.56,145.89l22.17.86c2.53-22,5.86-90.8,5.86-90.8,1.52-12.46,2.89-49.23,4-59.73.46-2.33.9-4.67,1.33-7,4.31,11.39,24.08,60.11,25.6,67.1l-8.11,92.67,23.86-.91S225.88,352,224.24,337.13Z" style="fill:#263238"></path><path d="M188.08,246.74A24.66,24.66,0,0,0,205,262.59a.33.33,0,1,1-.18.64,25.35,25.35,0,0,1-17.44-16.31c-.13-.41.54-.58.67-.18Z"></path><path d="M168,247.85q.71,9.93,1.41,19.86c0,.43.72.43.7,0-.25-3.39-.49-6.8-.73-10.2,1.73,1.26,3.75-.27,4.31-1.95a15.64,15.64,0,0,0-.14-8.71c-.12-.42-.79-.24-.68.17a17.56,17.56,0,0,1,.57,5.86,7.6,7.6,0,0,1-.66,3.07c-.55,1-1.95,1.89-3.07,1a.36.36,0,0,0-.37-.05c-.21-3-.43-6-.64-9C168.64,247.43,168,247.43,168,247.85Z"></path><path d="M151.52,246.63c.1,8.77-7,16.12-16.26,16.81-.44,0-.44-.62,0-.65,8.85-.66,15.66-7.76,15.57-16.16,0-.42.68-.42.69,0Z"></path><polygon points="154.86 417.94 150.96 444.23 141.62 444.67 138.59 419.32 154.86 417.94" style="fill:#263238"></polygon><path d="M133.66,456.44h20.9s.45-.8-.07-2.95c-.08-.33-.18-.7-.32-1.1a.14.14,0,0,0,0-.06c-.19-.59-.42-1.32-.65-2.11-1-3.21-1.61-10.59-1.61-10.59s-3.95-3.64-8-1.93c-3.57,1.49-3,3.39-3,3.39s-.06,4.89-2.77,7.11c-1.67,1.37-3.33,2.43-4.13,4.13a4.8,4.8,0,0,0-.35,1l0,.13A7.26,7.26,0,0,0,133.66,456.44Z" style="fill:#9340FF"></path><path d="M154.49,453.49c.52,2.15.07,2.95.07,2.95h-20.9a7.26,7.26,0,0,1-.08-2.95Z" style="fill:#fff"></path><path d="M142,444.55a3,3,0,0,1,3.77.21c.29.26.72-.14.44-.4a3.68,3.68,0,0,0-4.65-.21c-.31.22.13.62.44.4Z" style="fill:#263238"></path><path d="M141.4,446.34a3,3,0,0,1,3.77.21c.29.26.72-.14.44-.4a3.68,3.68,0,0,0-4.65-.21c-.31.22.13.62.44.4Z" style="fill:#263238"></path><path d="M140.81,448a3,3,0,0,1,3.77.22c.29.25.72-.15.44-.4a3.68,3.68,0,0,0-4.65-.22c-.31.23.13.62.44.4Z" style="fill:#263238"></path><path d="M201.79,237.56c3.72,6.11,3.72,11,.17,12.27,0,0-32.23,5.46-65.19,1.72-7.94.43-4.06-6.92-4.06-6.92l-.17-101.75c25.05-5.32,55.36-.4,61.5,0Z" style="fill:#9340FF"></path><path d="M123.2,157.65S113,202.84,112.07,213.23s-1.12,60-1.12,60l10.82-1.05,6.09-51.33,12.2-60.49Z" style="fill:#b97964"></path><path d="M121,270.74s3.39,2.11,4.17,5.46,2.23,5.79,2.65,8.32-2.12.33-3.24-1.12-2.42-3.1-3.31-2-3.27,13.11-4.68,14.45-1.59-.74-1.59-.74-.65,2.9-1.81,2.95c-.3,0-1-.49-.92-1.86.22-3.09,1-9.56,1-9.56,0,.38-1.55,8.28-1.92,9.43-.49,1.51-1.44,2-2.26,1.63-1.16-.47.4-10.33.19-10.8,0,0-.72,5.71-2.22,6.33s-1.22-3-.42-6.16c.74-2.89,1.48-8.75,2.51-11.61,1.26-3.52,2.85-5.58,6.18-5.81A10.84,10.84,0,0,1,121,270.74Z" style="fill:#b97964"></path><path d="M132.54,142.88s-7.92,0-10.93,10.72c-3.22,11.44-11,57.83-12.12,63.87s-.3,52.13-.3,52.13h14.6s3.71-47,4.07-48.75,15.36-61.1,15.36-61.1Z" style="fill:#9340FF"></path><path d="M132.64,202V168.39s-4.93,34.49-2.45,43.05Z" style="isolation:isolate;opacity:0.2"></path><path d="M193,142.88s9.69-.36,14,12.66c4.57,13.92,14.25,48.92,14.25,48.92l30.34,29.18-5.57,6s-23.4-12.28-34.37-19.13S193.5,180,193.74,178.26,193,142.88,193,142.88Z" style="fill:#9340FF"></path><path d="M201.35,205.26l-2.79-7.18-3.49-33S202.93,191.27,201.35,205.26Z" style="isolation:isolate;opacity:0.2"></path><path d="M180.27,97.6s13.3-7.48,5.41-15.51c-6.23-6.34-11.74-5.42-20.06-3.9-20.41,3.72-19.22,12.22-19.22,12.22Z" style="fill:#263238"></path><path d="M154.28,140.42s1.1-7.83-3.49-21.4c0,0,.71-.36.71-.38-.63-1.9-1.29-3.65-1.91-5.16a.45.45,0,0,1,0-.06l19.3,10.8c-.25,4.41,1.7,12.84,2.79,16.38,0,0,2.66,6.39-6,7.05C159.4,148.13,154.28,140.42,154.28,140.42Z" style="fill:#b97964"></path><path d="M169.47,130.38l-10.92-2c1.12,3.32,4.27,7.18,11.82,7.17A32.9,32.9,0,0,1,169.47,130.38Z" style="opacity:0.2"></path><path d="M149,104.29c1.79,11.87,2.56,18.59,9.13,24.13C168,136.74,182,130.14,183.77,118c1.62-11-1.57-28.53-13.68-32.13A16.55,16.55,0,0,0,149,104.29Z" style="fill:#b97964"></path><path d="M146.25,90.09c14.57-14,29.38-6.16,35.05,1.53l-25.4.3c-1.12,0-1.75,1.14-1.5,3.25,0,0,8.81,15.8-3.34,24.66-4.34-1.66-5.22-8.89-6.92-13.09C141.62,100.49,138.43,91.28,146.25,90.09Z" style="fill:#263238"></path><path d="M145.2,114.65a11.24,11.24,0,0,0,6.19,6.08c3.72,1.46,4.7-2.55,4-6.28-.6-3.35-1.95-7.39-5.86-7.25S143.8,111.24,145.2,114.65Z" style="fill:#b97964"></path><path d="M165.06,106c.1,1.22.84,2.15,1.64,2.07s1.35-1.13,1.25-2.35-.85-2.15-1.64-2.07S165,104.8,165.06,106Z" style="fill:#263238"></path><path d="M177.39,105.62c.1,1.22.84,2.15,1.64,2.07s1.35-1.13,1.25-2.35-.84-2.15-1.64-2.07S177.28,104.4,177.39,105.62Z" style="fill:#263238"></path><path d="M174.45,105.08s4.39,5.72,5.85,8.08c-1.56,1.69-4.55,1.24-4.55,1.24Z" style="fill:#a24e3f"></path><path d="M162.92,100.74a.56.56,0,0,0,.56-.13,4.65,4.65,0,0,1,4-1.28.58.58,0,0,0,.7-.42.56.56,0,0,0-.42-.69,5.72,5.72,0,0,0-5,1.56.57.57,0,0,0,0,.81A.64.64,0,0,0,162.92,100.74Z" style="fill:#263238"></path><path d="M171.55,119a7.93,7.93,0,0,1-5-2.11.38.38,0,0,1-.05-.53.37.37,0,0,1,.52-.05c1.87,1.5,3.36,2.07,5,1.92a.37.37,0,0,1,.41.33.38.38,0,0,1-.34.41Z" style="fill:#263238"></path><path d="M153.4,114.46a.26.26,0,0,1-.25-.2,5.73,5.73,0,0,0-1.31-2.64,3.57,3.57,0,0,0-2-1.23,1.92,1.92,0,0,0-2,.85.25.25,0,0,1-.43-.25,2.4,2.4,0,0,1,2.48-1.09,4,4,0,0,1,2.32,1.39,6.27,6.27,0,0,1,1.42,2.87.25.25,0,0,1-.19.29Z" style="opacity:0.2"></path><path d="M183.23,99.79a.54.54,0,0,0,.27-.18.57.57,0,0,0-.08-.81,5.64,5.64,0,0,0-5.07-1.2.59.59,0,0,0-.37.73.57.57,0,0,0,.71.37,4.39,4.39,0,0,1,4,1A.54.54,0,0,0,183.23,99.79Z" style="fill:#263238"></path><path d="M142.34,101.79l14.58.36a30.48,30.48,0,0,0-1.56-4.93h-14A21.1,21.1,0,0,0,142.34,101.79Z" style="fill:#fff;opacity:0.30000000000000004"></path><g style="opacity:0.2"><path d="M165.87,113.88a5.86,5.86,0,0,0-1.52,4.26,3.85,3.85,0,0,1-.39-2.52C164.27,114.32,165.87,113.88,165.87,113.88Z"></path></g><polygon points="169.9 134.17 176.78 140.36 165.29 154.29 148.69 140.3 153.61 133.07 163.99 141.73 169.9 134.17" style="fill:#9340FF"></polygon><polygon points="169.9 134.17 176.78 140.36 165.29 154.29 148.69 140.3 153.61 133.07 163.99 141.73 169.9 134.17" style="fill:#fff;opacity:0.8"></polygon><g id="freepik--freepik--Character--inject-255--inject-85"><path d="M343.08,390.42V346.83c0-13,3.14-31.56-11.05-38-4.35-2-9.27-1.73-14-1.66a5.46,5.46,0,0,0-5.37-5.2H262.52a5.46,5.46,0,0,0-5.37,5.22H244.51l-2.3-22.72c-.66-6.56-.89-13.36-2.06-19.86a19.38,19.38,0,0,0-18.58-16h-.4a2.83,2.83,0,0,0-2.21-1H197.5c-4,0-4,6.46,0,6.46H219a2.82,2.82,0,0,0,2-.81c5.52.44,10.55,2.07,13.54,8.12,1.38,2.82,1.56,5.78,1.86,8.81l1.33,12.62,4.47,44.38c-25.93,5-45.79,31.47-45.79,63.51,0,35.48,24.47,64.35,54.59,64.35,29.45,0,53.51-27.7,54.51-62.09h22.36a51.71,51.71,0,0,1,9.87.37c.36.07.71.14,1.05.23V421a14.32,14.32,0,0,0-8.39-2.77c-8.8,0-16,8.26-16,18.43s7.16,18.42,16,18.42,16-8.26,16-18.42a20.16,20.16,0,0,0-3.24-11.09V390.37Zm-12.75,56.91c-4.68,0-8.49-4.78-8.49-10.66S325.65,426,330.33,426a8.35,8.35,0,0,1,7.28,5.17c-1.13,2.92-3.39,5-7.86,5.27-2.79.14-2.81,4.67,0,4.52a13.1,13.1,0,0,0,9.07-3.94C338.66,442.69,334.93,447.33,330.33,447.33Zm-79.41,0c-26,0-47.08-25.38-47.08-56.59,0-27.93,17-51.2,39.11-55.77.11,1.13.23,2.27.34,3.4C222.16,342.68,206,364.51,206,390.74c0,29.31,20.14,53.16,44.88,53.16,24.12,0,43.84-22.66,44.89-50.9H298C297,423.16,276.26,447.33,250.92,447.33Zm44.89-58.85c-1-28.27-20.74-50.9-44.89-50.9-1.11,0-2.23.06-3.33.16l-.34-3.41c1.21-.11,2.42-.19,3.64-.19,25.34,0,46.09,24.17,47,54.34Zm-50-25.64c.62,6.2,1,12.51,1.9,18.66C249.62,394.41,262,393,271.36,393h21.09c-1,26.44-19.23,47.45-41.53,47.45-22.91,0-41.56-22.3-41.56-49.71,0-24.43,14.83-44.8,34.28-48.93l2.13,21Zm37.9,25.64H266.61c-2.82,0-6.35.49-9.08-.48-7.42-2.63-6.47-15.86-7.13-22.35L248,341.17c1-.08,2-.14,3-.14,22.29,0,40.53,21.08,41.52,47.45Zm49.95,0c-3.19-.07-6.39,0-9.58,0H305.44c-1-34.45-25.06-62.1-54.52-62.1-1.49,0-3,.09-4.45.23q-.76-7.47-1.52-14.93h13.93a5.25,5.25,0,0,0,3.64,1.47h50.16a5.26,5.26,0,0,0,3.64-1.48h7.07c8.49,0,15.08,5.91,15.32,15,.12,4.29,0,8.61,0,12.9v49.47a26.89,26.89,0,0,0-5.14-.58Z" style="fill:#9340FF"></path><path d="M343.08,390.42V346.83c0-13,3.14-31.56-11.05-38-4.35-2-9.27-1.73-14-1.66a5.46,5.46,0,0,0-5.37-5.2H262.52a5.46,5.46,0,0,0-5.37,5.22H244.51l-2.3-22.72c-.66-6.56-.89-13.36-2.06-19.86a19.38,19.38,0,0,0-18.58-16h-.4a2.83,2.83,0,0,0-2.21-1H197.5c-4,0-4,6.46,0,6.46H219a2.82,2.82,0,0,0,2-.81c5.52.44,10.55,2.07,13.54,8.12,1.38,2.82,1.56,5.78,1.86,8.81l1.33,12.62,4.47,44.38c-25.93,5-45.79,31.47-45.79,63.51,0,35.48,24.47,64.35,54.59,64.35,29.45,0,53.51-27.7,54.51-62.09h22.36a51.71,51.71,0,0,1,9.87.37c.36.07.71.14,1.05.23V421a14.32,14.32,0,0,0-8.39-2.77c-8.8,0-16,8.26-16,18.43s7.16,18.42,16,18.42,16-8.26,16-18.42a20.16,20.16,0,0,0-3.24-11.09V390.37Zm-12.75,56.91c-4.68,0-8.49-4.78-8.49-10.66S325.65,426,330.33,426a8.35,8.35,0,0,1,7.28,5.17c-1.13,2.92-3.39,5-7.86,5.27-2.79.14-2.81,4.67,0,4.52a13.1,13.1,0,0,0,9.07-3.94C338.66,442.69,334.93,447.33,330.33,447.33Zm-79.41,0c-26,0-47.08-25.38-47.08-56.59,0-27.93,17-51.2,39.11-55.77.11,1.13.23,2.27.34,3.4C222.16,342.68,206,364.51,206,390.74c0,29.31,20.14,53.16,44.88,53.16,24.12,0,43.84-22.66,44.89-50.9H298C297,423.16,276.26,447.33,250.92,447.33Zm44.89-58.85c-1-28.27-20.74-50.9-44.89-50.9-1.11,0-2.23.06-3.33.16l-.34-3.41c1.21-.11,2.42-.19,3.64-.19,25.34,0,46.09,24.17,47,54.34Zm-50-25.64c.62,6.2,1,12.51,1.9,18.66C249.62,394.41,262,393,271.36,393h21.09c-1,26.44-19.23,47.45-41.53,47.45-22.91,0-41.56-22.3-41.56-49.71,0-24.43,14.83-44.8,34.28-48.93l2.13,21Zm37.9,25.64H266.61c-2.82,0-6.35.49-9.08-.48-7.42-2.63-6.47-15.86-7.13-22.35L248,341.17c1-.08,2-.14,3-.14,22.29,0,40.53,21.08,41.52,47.45Zm49.95,0c-3.19-.07-6.39,0-9.58,0H305.44c-1-34.45-25.06-62.1-54.52-62.1-1.49,0-3,.09-4.45.23q-.76-7.47-1.52-14.93h13.93a5.25,5.25,0,0,0,3.64,1.47h50.16a5.26,5.26,0,0,0,3.64-1.48h7.07c8.49,0,15.08,5.91,15.32,15,.12,4.29,0,8.61,0,12.9v49.47a26.89,26.89,0,0,0-5.14-.58Z" style="isolation:isolate;opacity:0.4"></path><path d="M255.36,236.27s7.9,1.14,11.44,7.69c4.17,7.71,13.57,20.93,13.57,20.93l10.08-16.95,10.95,4.13s-11.64,23.47-14,27.84c-2.92,5.3-9.86,3.2-12.39,1.52-5.93-4-12-10.74-12-10.74Z" style="fill:#9340FF"></path><path d="M255.36,236.27s7.9,1.14,11.44,7.69c4.17,7.71,13.57,20.93,13.57,20.93l10.08-16.95,10.95,4.13s-11.64,23.47-14,27.84c-2.92,5.3-9.86,3.2-12.39,1.52-5.93-4-12-10.74-12-10.74Z" style="fill:#fff;opacity:0.5"></path><rect x="194.25" y="349.29" width="146.31" height="10.17" rx="4.23" style="fill:#9340FF"></rect><polygon points="193.52 307.47 245.06 307.47 241.63 273.71 190.09 273.71 193.52 307.47" style="fill:#9340FF"></polygon><path d="M348.56,338.76c-3.53-15.73-11.91-19.9-18.37-22C312.91,311,271,307.11,271,307.11l-3.41-4.64-49.07-3.24s2.18,31.75,30.58,45a58.07,58.07,0,0,0,13.07,4,188,188,0,0,0,61.88,1.38l17.77,66.46L363,410.3Z" style="fill:#263238"></path><path d="M360.49,410.91c-.09-1.44-.35-2.6-1.88-2.47l-2.17.19a3.78,3.78,0,0,0-1.9,1.29c-4.44,4.15-7.1,0-9,.29-2.45.36.27,8,.21,8.42l-1.36,9.51c-.13.8.58,2.37,1.43,2.47a1.78,1.78,0,0,0,.46,0l11.86-1.72,16.62-2.41c4.53-.66,3.77-6.21,1.85-6.33-8.64-.52-12.35-2.78-15.4-4.39A38,38,0,0,1,360.49,410.91Z" style="fill:#9340FF"></path><path d="M374.74,426.47l-16.62,2.41-11.86,1.72a1.78,1.78,0,0,1-.46,0c-.57-.07-1.08-.81-1.31-1.54l-.09-.69L378,423.5A3.62,3.62,0,0,1,374.74,426.47Z" style="fill:#fff;opacity:0.4"></path><path d="M365.55,418a8.47,8.47,0,0,0-1.48,2.72.38.38,0,0,0,.26.46.39.39,0,0,0,.46-.26,7.8,7.8,0,0,1,1.29-2.39.38.38,0,0,0,0-.53.39.39,0,0,0-.53,0Z" style="fill:#263238"></path><path d="M362.7,416.74a9.53,9.53,0,0,0-1.41,2.53.39.39,0,0,0,.26.47.39.39,0,0,0,.46-.27,8.5,8.5,0,0,1,1.23-2.2.39.39,0,0,0,0-.53.4.4,0,0,0-.54,0Z" style="fill:#263238"></path><path d="M360.72,415.57a3.93,3.93,0,0,0-1.4,2,.38.38,0,0,0,.26.46.4.4,0,0,0,.47-.27,2.25,2.25,0,0,1,.08-.24v0s0,0,0,0l0-.05.06-.12a3,3,0,0,1,.27-.45.61.61,0,0,1,.07-.1s0,0,0,0l0,0,.18-.2.18-.17.1-.1,0,0c.07-.06-.07,0,0,0a.41.41,0,0,0,.17-.22.37.37,0,0,0,0-.29.38.38,0,0,0-.51-.14Z" style="fill:#263238"></path><path d="M360.39,412.64a6.29,6.29,0,0,0-2.25.82.38.38,0,0,0-.14.51.4.4,0,0,0,.52.14,5.49,5.49,0,0,1,2.07-.75.37.37,0,0,0,.26-.46.39.39,0,0,0-.46-.26Z" style="fill:#263238"></path><g style="opacity:0.30000000000000004"><path d="M352.13,414.63a2.43,2.43,0,0,1-.75,2.24,3,3,0,0,1-1.45.42l-4.55.53,0,0c-.55-2.11-2-7.26-.08-7.53,1.48-.21,3.46,2.57,6.42,1.24C351.83,412.63,352.08,414.08,352.13,414.63Z"></path></g><path d="M302.49,318.81c17.27,4.74,16.22,15,21.57,30.49,0,0-22.82,3.87-53.36,0l-6-13.15,9.6-22.65C281.31,313.47,291.44,316,302.49,318.81Z" style="isolation:isolate;opacity:0.30000000000000004"></path><path d="M328.35,412.77c-.09-1.43-.35-2.6-1.88-2.46l-2.17.19a3.72,3.72,0,0,0-1.9,1.29c-4.44,4.15-7.1,0-9,.29-2.46.36.27,8,.21,8.42L312.22,430c-.12.79.59,2.37,1.44,2.47a1.7,1.7,0,0,0,.45,0L326,430.75l16.62-2.41c4.52-.66,3.77-6.21,1.85-6.33-8.64-.52-12.35-2.78-15.4-4.39A38,38,0,0,1,328.35,412.77Z" style="fill:#9340FF"></path><path d="M342.6,428.34,326,430.75l-11.87,1.72a1.7,1.7,0,0,1-.45,0c-.58-.07-1.08-.82-1.31-1.54l-.09-.7,33.62-4.87A3.62,3.62,0,0,1,342.6,428.34Z" style="fill:#fff;opacity:0.4"></path><path d="M333.41,419.82a8.53,8.53,0,0,0-1.48,2.71.39.39,0,0,0,.26.47.38.38,0,0,0,.46-.27,7.64,7.64,0,0,1,1.29-2.38.37.37,0,0,0-.53-.53Z" style="fill:#263238"></path><path d="M330.56,418.61a9.37,9.37,0,0,0-1.41,2.53.37.37,0,0,0,.26.46.38.38,0,0,0,.46-.26,8.77,8.77,0,0,1,1.22-2.2.38.38,0,0,0,0-.53.39.39,0,0,0-.53,0Z" style="fill:#263238"></path><path d="M328.58,417.44a4,4,0,0,0-1.4,2,.37.37,0,1,0,.72.2l.09-.25v0l0-.05.06-.11a2.51,2.51,0,0,1,.26-.45l.08-.1c0-.05,0,0,0,0s0,0,0-.06l.18-.19.18-.18.1-.09.05,0c.07-.06-.07,0,0,0a.4.4,0,0,0,.17-.23.38.38,0,0,0,0-.28.37.37,0,0,0-.51-.14Z" style="fill:#263238"></path><path d="M328.25,414.51a6,6,0,0,0-2.25.82.38.38,0,0,0-.14.51.39.39,0,0,0,.52.13,4.74,4.74,0,0,1,1-.46,5.72,5.72,0,0,1,1.1-.28.37.37,0,0,0,.26-.46.38.38,0,0,0-.46-.26Z" style="fill:#263238"></path><g style="opacity:0.30000000000000004"><path d="M320,416.49a2.41,2.41,0,0,1-.75,2.24,3,3,0,0,1-1.45.43l-4.56.53,0,0c-.55-2.12-1.95-7.26-.08-7.53,1.48-.22,3.46,2.57,6.42,1.24C319.69,414.5,319.94,415.94,320,416.49Z"></path></g><path d="M211.32,312.84s-.79,33.19,19.92,35.1c25.94,2.39,58.4,1.37,58.4,1.37l19.2,66.38,21.87-4s-7.26-77.15-23.6-88.59c-4.41-3.09-49.06-13.57-49.06-13.57Z" style="fill:#263238"></path><path d="M237.39,212.11c-4.18-6.84-7.57-11.56-6.91-19.55l-5-7.17c-3.69-2.86-9.81-.2-12.21,2.69a16.38,16.38,0,0,0-3.4,10.49c0,3.13.66,6.24.61,9.37s-.94,6.48-3.38,8.44c-1.66,1.34-4,2.07-4.81,4.05-.71,1.78.21,3.8,1.42,5.28a14.11,14.11,0,0,0,16.82,3.47c-.76,1.78.55,3.93,2.35,4.64a7.71,7.71,0,0,0,5.65-.4c3.3-1.32,8-4.76,9-8.15C238.9,221.19,240.45,217.13,237.39,212.11Z" style="fill:#263238"></path><path d="M243.12,245.63c-2.07,1.55-3.6.68-5.81-.67-13.31-7.31-8.05-13.47-8.05-13.47,3.18-2.71,3.89-6.45,3.82-12.34a4,4,0,0,1,.06-.5,3.79,3.79,0,0,1,1-2,3.83,3.83,0,0,1,5.42-.15h0l6,2.81h0v.28c-.48,3.14-1,5.56-1.24,7.47a3.94,3.94,0,0,1-.1.7h0a3.29,3.29,0,0,1-.08.71c-.26,2.65.07,4.14,1.74,5.34C247,234.59,250.13,240.41,243.12,245.63Z" style="fill:#b97964"></path><path d="M245.64,219.27h0a.7.7,0,0,0,0,.29c-.48,3.14-1,5.56-1.24,7.47a5.62,5.62,0,0,0-.1.7h0a6.15,6.15,0,0,0,0,.74h0a24.63,24.63,0,0,1-11-9.82h0a3.94,3.94,0,0,1,1-2,3.85,3.85,0,0,1,5.42-.22Z" style="isolation:isolate;opacity:0.2"></path><path d="M266.53,261.34c-.61-7.24-5-13.93-5-13.93a36.93,36.93,0,0,1,2.76,7.27c1.57,5.34-5.12,16.57-5.12,16.57l4.49.15C265.72,268,266.89,265.63,266.53,261.34Z" style="isolation:isolate;opacity:0.2"></path><path d="M216.9,290.15,216,308.06l53.15-4.93c-1.5-3.81-7.27-19.7-7.24-23.44.87-4.74,2.14-9.74,3.39-15.49,1.35-9.3-8.18-28-9.62-28.68a52.11,52.11,0,0,0-10.3-3,150,150,0,0,0-16-.71c-1,0-2.06,0-3.08,0,0,0-19.95,1-19.75,9.16C206.51,241.42,215.87,264.22,216.9,290.15Z" style="fill:#9340FF"></path><path d="M216.9,290.15,216,308.06l53.15-4.93c-1.5-3.81-7.27-19.7-7.24-23.44.87-4.74,2.14-9.74,3.39-15.49,1.35-9.3-8.18-28-9.62-28.68a52.11,52.11,0,0,0-10.3-3,150,150,0,0,0-16-.71c-1,0-2.06,0-3.08,0,0,0-19.95,1-19.75,9.16C206.51,241.42,215.87,264.22,216.9,290.15Z" style="fill:#fff;opacity:0.5"></path><path d="M227.17,231.67a15.4,15.4,0,0,0,11.11,10.22,7.2,7.2,0,0,0,3.77,0,7.68,7.68,0,0,0,3.55-2.4c1.48-2.3.82-6.22.79-6.62C239.73,230.89,233.86,230.28,227.17,231.67Z" style="fill:#b97964"></path><polygon points="216.27 302.52 228.95 305.33 234.28 305.33 235.41 302.43 216.54 298.45 216.27 302.52" style="isolation:isolate;opacity:0.2"></polygon><path d="M214.18,268.05l2.17-10.42c-.09.44.86,15.31-.8,18.27Z" style="isolation:isolate;opacity:0.2"></path><path d="M212.14,234.91s-4.41.55-9.45,9.27-11.18,40.77-7.48,47.89,39.23,12.86,39.23,12.86l5-12.86-28-10.86,5.43-26.09Z" style="fill:#9340FF"></path><path d="M212.14,234.91s-4.41.55-9.45,9.27-11.18,40.77-7.48,47.89,39.23,12.86,39.23,12.86l5-12.86-28-10.86,5.43-26.09Z" style="fill:#fff;opacity:0.5"></path><path d="M227.83,193.34a31.82,31.82,0,0,0-1-3.79,5.91,5.91,0,0,1,.08-3.83l-.3.18a6.83,6.83,0,0,0-5,3.69,7.25,7.25,0,0,0-1,4.13,4.67,4.67,0,0,0,2.13,3.58,3.44,3.44,0,0,0,4-.34A4.3,4.3,0,0,0,227.83,193.34Z" style="fill:#9340FF"></path><path d="M227.68,197c.11,11.34-.08,16.12,5.25,22.5,8,9.58,21.69,7.69,24.91-3.28,2.9-9.87,2.22-26.75-8.44-32.37C238.9,178.29,227.56,185.65,227.68,197Z" style="fill:#b97964"></path><path d="M241.4,201.68c0,1.06.55,2,1.29,2s1.36-.72,1.39-1.78-.55-2-1.29-2S241.43,200.62,241.4,201.68Z" style="fill:#263238"></path><path d="M253.08,202.47a1.82,1.82,0,0,0,1.29,2c.73.07,1.35-.7,1.37-1.72a1.82,1.82,0,0,0-1.29-2C253.72,200.67,253.1,201.44,253.08,202.47Z" style="fill:#263238"></path><path d="M239.94,197.5a.48.48,0,0,0,.41-.1,4.07,4.07,0,0,1,3.79-.73.5.5,0,0,0,.68-.32.61.61,0,0,0-.35-.73,5.11,5.11,0,0,0-4.81.87.57.57,0,0,0-.07.79A.6.6,0,0,0,239.94,197.5Z" style="fill:#263238"></path><path d="M257,198.33a.56.56,0,0,0,.4,0,.55.55,0,0,0,.2-.75,5.8,5.8,0,0,0-4.06-3.18.51.51,0,0,0-.58.48.6.6,0,0,0,.51.63A4.71,4.71,0,0,1,256.7,198,.64.64,0,0,0,257,198.33Z" style="fill:#263238"></path><path d="M231.9,204.44s3.89-5,3.29-15.3a3.24,3.24,0,0,1,2.85-3.46c4.93-.55,11.91-6.15,18.84,6.66,0,0-2.77-15.79-25.18-10.8-14.41,3.2-8,21.39-6.09,23.27S231.9,204.44,231.9,204.44Z" style="fill:#263238"></path><path d="M223.53,205.88a9.07,9.07,0,0,0,5.12,4.7c2.92,1,4.84-3.67,4.07-6.74a6,6,0,0,0-6.42-4.43C223.39,199.76,222.22,203.12,223.53,205.88Z" style="fill:#b97964"></path><path d="M249.35,213.23a31.9,31.9,0,0,0-2.36,4l-.77-.25c-3.52-1.13-4.78-2.81-5.1-4.34a5.21,5.21,0,0,1,.6-3.44c1.51,1.71,4.7,3,6.44,3.64C248.88,213.09,249.35,213.23,249.35,213.23Z" style="fill:#263238"></path><path d="M248.16,212.82l-.73,1.16c-3.31-1.07-5.49-2.27-6.2-3.61a4.6,4.6,0,0,1,.49-1.19C243.23,210.89,246.42,212.2,248.16,212.82Z" style="fill:#fff"></path><path d="M246.22,217c-3.52-1.13-4.78-2.81-5.1-4.34a11.75,11.75,0,0,1,3.65,2A4.44,4.44,0,0,1,246.22,217Z" style="fill:#de5753"></path><path d="M250.08,201.91a38.27,38.27,0,0,0,3.19,7.14.88.88,0,0,1-.52,1.3,5.56,5.56,0,0,1-3-.2Z" style="fill:#a24e3f"></path><path d="M230.54,206.94h-.06a.25.25,0,0,1-.18-.3,3.73,3.73,0,0,0-.43-2.81,3.68,3.68,0,0,0-2.28-1.69.25.25,0,0,1,.12-.49,4.22,4.22,0,0,1,3.07,5.11A.25.25,0,0,1,230.54,206.94Z" style="opacity:0.2"></path><path d="M242.57,199.85l2.63-.4S243.63,201.27,242.57,199.85Z" style="fill:#263238"></path><path d="M254.19,200.75l2.63-.4S255.25,202.16,254.19,200.75Z" style="fill:#263238"></path><path d="M258.47,197.26s7.52-7.77-3.71-15.57c0,0-9.81-6.49-20.21-.66s-10.92,10.3-2.39,21.31c0,0-.9-1.43,2.8-4.19s7.75-5.17,6.13-8.27c0,0,2.79,1.34,2.77,4.09l5.17-1a9.62,9.62,0,0,0-1.24-4,9.09,9.09,0,0,1,3.17,4.09l4.31,1.18s-.32-4.06-1.44-5.61C253.83,188.62,257.5,193.07,258.47,197.26Z" style="fill:#263238"></path><path d="M154.39,248.48h5.24c5,0,10-.15,15,0A18.08,18.08,0,0,1,192.12,263c1.14,5.9,1.32,12.07,1.94,18q3.85,36.87,7.73,73.74c.61,5.88-.28,17.9,6.72,20.28,2.56.88,5.89.44,8.55.44h54.09c3,0,6-.06,9,0a25.58,25.58,0,0,1,7.17,1.14V381a16.49,16.49,0,0,0-3.36-1,50.72,50.72,0,0,0-9.3-.34H221.49c-8.8,0-20.48,1.28-22.3-10.43-.86-5.59-1.14-11.32-1.78-16.94q-3.81-36.32-7.6-72.63-.62-5.72-1.21-11.49c-.29-2.77-.45-5.46-1.76-8-3.71-7.25-10.79-7.52-17.82-7.52H154.39a2.06,2.06,0,1,1,0-4.12Z" style="fill:#263238"></path><path d="M154.39,248.48h5.24c5,0,10-.15,15,0A18.08,18.08,0,0,1,192.12,263c1.14,5.9,1.32,12.07,1.94,18q3.85,36.87,7.73,73.74c.61,5.88-.28,17.9,6.72,20.28,2.56.88,5.89.44,8.55.44h54.09c3,0,6-.06,9,0a25.58,25.58,0,0,1,7.17,1.14V381a16.49,16.49,0,0,0-3.36-1,50.72,50.72,0,0,0-9.3-.34H221.49c-8.8,0-20.48,1.28-22.3-10.43-.86-5.59-1.14-11.32-1.78-16.94q-3.81-36.32-7.6-72.63-.62-5.72-1.21-11.49c-.29-2.77-.45-5.46-1.76-8-3.71-7.25-10.79-7.52-17.82-7.52H154.39a2.06,2.06,0,1,1,0-4.12Z" style="fill:#fff;isolation:isolate;opacity:0.7000000000000001"></path><path d="M151.93,253.46h20.22c3.78,0,3.78-5.86,0-5.86H151.93C148.16,247.6,148.15,253.46,151.93,253.46Z" style="fill:#9340FF"></path><path d="M151.93,253.46h20.22c3.78,0,3.78-5.86,0-5.86H151.93C148.16,247.6,148.15,253.46,151.93,253.46Z" style="isolation:isolate;opacity:0.30000000000000004"></path><path d="M277.44,456.32c-8.3,0-15.05-7.5-15.05-16.72s6.75-16.73,15.05-16.73,15,7.49,15,16.73S285.73,456.32,277.44,456.32Zm0-26.41c-4.41,0-8,4.34-8,9.69s3.59,9.68,8,9.68,8-4.34,8-9.68S281.85,429.91,277.44,429.91Z" style="fill:#263238"></path><path d="M198.89,456.44c-30.09,0-54.59-27.81-54.59-62s24.48-62,54.59-62,54.58,27.82,54.58,62S229,456.44,198.89,456.44Zm0-116.54c-26,0-47.1,24.47-47.1,54.59S172.91,449,198.89,449,246,424.56,246,394.49,224.84,339.9,198.89,339.9Z" style="fill:#263238"></path><path d="M198.89,456.44c-30.09,0-54.59-27.81-54.59-62s24.48-62,54.59-62,54.58,27.82,54.58,62S229,456.44,198.89,456.44Zm0-116.54c-26,0-47.1,24.47-47.1,54.59S172.91,449,198.89,449,246,424.56,246,394.49,224.84,339.9,198.89,339.9Z" style="fill:#fff;opacity:0.2"></path><path d="M198.89,445.71c-24.76,0-44.89-23-44.89-51.22s20.14-51.23,44.89-51.23,44.88,23,44.88,51.23S223.63,445.71,198.89,445.71Zm0-99.12c-22.93,0-41.58,21.48-41.58,47.9s18.65,47.89,41.58,47.89,41.57-21.48,41.57-47.89-18.66-47.95-41.57-47.95Z" style="fill:#263238"></path><g style="opacity:0.7000000000000001"><path d="M198.89,445.71c-24.76,0-44.89-23-44.89-51.22s20.14-51.23,44.89-51.23,44.88,23,44.88,51.23S223.63,445.71,198.89,445.71Zm0-99.12c-22.93,0-41.58,21.48-41.58,47.9s18.65,47.89,41.58,47.89,41.57-21.48,41.57-47.89-18.66-47.95-41.57-47.95Z" style="fill:#fff"></path></g><path d="M194,314.68c25.27,0,50.56-.14,75.84,0,8,0,14.2,5.68,14.44,14.41.1,4.12,0,8.27,0,12.38v76.95c0,6.79.51,15.47-8.46,16-2.64.13-2.65,4.48,0,4.33,8.24-.43,12.57-7.11,12.57-15.26v-75c0-12.48,3-30.29-10.41-36.49-4.57-2.13-9.84-1.57-14.72-1.57H194a2.18,2.18,0,0,0,0,4.33Z" style="fill:#263238"></path><g style="opacity:0.7000000000000001"><path d="M194,314.68c25.27,0,50.56-.14,75.84,0,8,0,14.2,5.68,14.44,14.41.1,4.12,0,8.27,0,12.38v76.95c0,6.79.51,15.47-8.46,16-2.64.13-2.65,4.48,0,4.33,8.24-.43,12.57-7.11,12.57-15.26v-75c0-12.48,3-30.29-10.41-36.49-4.57-2.13-9.84-1.57-14.72-1.57H194a2.18,2.18,0,0,0,0,4.33Z" style="fill:#fff"></path></g><path d="M211.63,305.33h49a4.35,4.35,0,0,1,4.23,4.47v1.81a4.35,4.35,0,0,1-4.23,4.47h-49a4.35,4.35,0,0,1-4.23-4.47V309.8A4.35,4.35,0,0,1,211.63,305.33Z" style="fill:#9340FF"></path><path d="M211.63,305.33h49a4.35,4.35,0,0,1,4.23,4.47v1.81a4.35,4.35,0,0,1-4.23,4.47h-49a4.35,4.35,0,0,1-4.23-4.47V309.8A4.35,4.35,0,0,1,211.63,305.33Z" style="isolation:isolate;opacity:0.30000000000000004"></path><path d="M252.86,305.4s2.8,10.19,2.08,10.59-3.22,1-4.79.12a3.26,3.26,0,0,1-3.73-.51l-.84-1.16s-1.12,2.34-3.73.07-3.76-6.38-4.07-9.22l-3.18-.77L238.68,294s12.86,6.49,15.42,7.61a6.88,6.88,0,0,1,3.74,3.68Z" style="fill:#b97964"></path><rect x="306.61" y="429.17" width="59.21" height="4.75" style="fill:#263238"></rect><rect x="306.61" y="429.17" width="59.21" height="4.75" style="fill:#fff;opacity:0.7000000000000001"></rect><polygon points="284.63 390.93 306.89 433.36 310.79 431.54 288.45 388.49 284.63 390.93" style="fill:#263238"></polygon><polygon points="284.63 390.93 306.89 433.36 310.79 431.54 288.45 388.49 284.63 390.93" style="fill:#fff;opacity:0.7000000000000001"></polygon></g><path d="M248.92,234.43s-.22,9.44,1.35,10.79,2.22-1.53,2.22-1.53-.53,3.2.8,3.61c1.59.49,2.27-2.52,2.27-2.52s-.33,2.63.88,2.92,2.25-3,2.25-3,.13,1.89,1.08,1.62,3.21-7.34,2.47-9.81-9.91-5.05-12-5.2-2.07-.34-5.81,1.32c1.58.77,3.22,1.34,4.51,1.85Z" style="fill:#b97964"></path><path d="M252.64,243.72h0l.65-5.63a.14.14,0,0,0-.13-.15.13.13,0,0,0-.17.11l-.66,5.63c0,.07.06.14.14.16A.16.16,0,0,0,252.64,243.72Z" style="opacity:0.2"></path><path d="M255.75,244.66h0l1.05-5.35a.15.15,0,0,0-.12-.17.16.16,0,0,0-.18.11l-1.06,5.35a.15.15,0,0,0,.13.17A.15.15,0,0,0,255.75,244.66Z" style="opacity:0.2"></path><path d="M258.89,244.5l.9-4a.16.16,0,0,0-.12-.17.17.17,0,0,0-.19.1l-.9,4a.16.16,0,0,0,.13.17A.15.15,0,0,0,258.89,244.5Z" style="opacity:0.2"></path><path d="M300.15,232.4s2-1.75,4-.93,1.34,2.41,1.34,2.41,4,.41,3,2.39l-.81,1.39a2.92,2.92,0,0,1,2.55,2.47c.54,2.37-8.18,9.61-8.18,9.61l-.68,2.33-10.95-4.13,1.4-3.53Z" style="fill:#b97964"></path><g style="opacity:0.2"><path d="M300.36,233.46s2.39,6.43,1.58,8.41-2.77-.36-2.77-.36,2,2.71,1,3.71c-1.24,1.21-3.28-1.25-3.28-1.25s1.54,2.27.56,3.1-3.52-1.75-3.52-1.75.78,1.81-.23,2-6.42-5.24-6.9-7.88,5.69-9.37,7.83-9.9,4.89.37,8.11,2.43l-2.34,1.49Z"></path></g><path d="M299.33,232.76s2.38,6.43,1.57,8.4-2.77-.36-2.77-.36,2,2.71,1,3.71c-1.24,1.21-3.28-1.25-3.28-1.25s1.54,2.27.56,3.11-3.52-1.75-3.52-1.75.78,1.8-.23,2-6.42-5.25-6.9-7.89,5.7-9.37,7.83-9.9,4.89.37,8.11,2.43l-2.33,1.5Z" style="fill:#d89380"></path><path d="M298,240.91h0L294.74,236a.15.15,0,0,1,.05-.21.14.14,0,0,1,.21,0l3.26,4.88a.16.16,0,0,1-.05.21A.16.16,0,0,1,298,240.91Z" style="opacity:0.2"></path><path d="M295.58,243.24h0l-3.5-4.44a.15.15,0,0,1,0-.21.16.16,0,0,1,.22,0l3.5,4.44a.15.15,0,0,1,0,.21A.15.15,0,0,1,295.58,243.24Z" style="opacity:0.2"></path><path d="M292.6,244.57l-2.69-3.22a.16.16,0,0,1,0-.22.15.15,0,0,1,.21,0l2.7,3.22a.16.16,0,0,1,0,.22A.17.17,0,0,1,292.6,244.57Z" style="opacity:0.2"></path><path d="M304.87,231.88a4.37,4.37,0,0,0-3.65-.62c-1,.33-5.1,4.09-4,5s3.5-.5,3.5-.5-3.09,1.82-1.58,3.2,3.4-.43,3.4-.43a1.67,1.67,0,0,0,0,2.37c1.16,1.17,5,1.23,5,1.23l-2.18-5.53Z" style="fill:#b97964"></path><path d="M315.58,236.11c-1.49-1.56-3.45-1.3-7.27-1.28l-.22,1.49s-4.94,4.16-5.32,6.26,2.53,1.18,2.53,1.18-3.13,1.22-2.8,2.62c.4,1.68,3.45.7,3.45.7s-2.52,1.09-2.14,2.32,3.91.41,3.91.41-1.63,1.1-.88,1.81,8.23-1,10.05-3S317.1,237.69,315.58,236.11Z" style="fill:#d89380"></path><path d="M305.35,243.92h0l5.37-2.38a.16.16,0,0,0,.07-.21.15.15,0,0,0-.19-.09l-5.37,2.38a.17.17,0,0,0-.07.21A.15.15,0,0,0,305.35,243.92Z" style="opacity:0.2"></path><path d="M306.15,247.18h0l5.33-1.88a.15.15,0,0,0,.09-.2.15.15,0,0,0-.19-.1l-5.34,1.87a.16.16,0,0,0-.08.2A.15.15,0,0,0,306.15,247.18Z" style="opacity:0.2"></path><path d="M308,249.9l4-1.28a.15.15,0,0,0,.08-.2.16.16,0,0,0-.18-.11l-4,1.28a.18.18,0,0,0-.09.2A.15.15,0,0,0,308,249.9Z" style="opacity:0.2"></path></g></svg>
